<svg xmlns="http://www.w3.org/2000/svg" viewBox="0 0 512 512">
    <rect width="512" height="512" rx="80" fill="#1976d2"/>
    <g transform="translate(256 256)" fill="white">
        <path d="M -80 -150
                 C -150 -130, -160 -50, -120 30
                 C -100 80, -90 130, -60 150
                 C -30 165, 30 165, 60 150
                 C 90 130, 100 80, 120 30
                 C 160 -50, 150 -130, 80 -150
                 C 40 -160, -40 -160, -80 -150 Z"
              opacity="0.15"/>
        <circle cx="-30" cy="-110" r="14"/>
        <circle cx="30"  cy="-110" r="14"/>
        <circle cx="-50" cy="-40"  r="18"/>
        <circle cx="50"  cy="-40"  r="18"/>
        <circle cx="0"   cy="40"   r="20"/>
        <circle cx="0"   cy="110"  r="24"/>
    </g>
</svg>
